<?xml version="1.0" standalone="no"?><!DOCTYPE svg PUBLIC "-//W3C//DTD SVG 1.1//EN" "http://www.w3.org/Graphics/SVG/1.1/DTD/svg11.dtd"><svg t="1749541730276" class="icon" viewBox="0 0 1024 1024" version="1.1" xmlns="http://www.w3.org/2000/svg" p-id="32802" xmlns:xlink="http://www.w3.org/1999/xlink" width="256" height="256"><path d="M511.993969 511.993969m-511.993969 0a511.993969 511.993969 0 1 0 1023.987937 0 511.993969 511.993969 0 1 0-1023.987937 0Z" fill="#0065F7" p-id="32803"></path><path d="M373.165326 322.54845m53.478589 40.416202l2.338545 1.767346q53.478589 40.416202 13.062388 93.894791l-149.446126 197.746634q-40.416202 53.478589-93.894791 13.062387l-2.338545-1.767345q-53.478589-40.416202-13.062387-93.894791l149.446125-197.746634q40.416202-53.478589 93.894791-13.062388Z" fill="" p-id="32804"></path><path d="M376.309844 294.065235m53.478589 40.416202l2.338545 1.767345q53.478589 40.416202 13.062387 93.894791l-149.446125 197.746634q-40.416202 53.478589-93.894791 13.062388l-2.338546-1.767346q-53.478589-40.416202-13.062387-93.894791l149.446126-197.746634q40.416202-53.478589 93.894791-13.062387Z" fill="#F15A24" p-id="32805"></path><path d="M631.862679 496.366725m53.555578 40.474386l0 0q53.555578 40.474386 13.081192 94.029964l-139.045699 183.984824q-40.474386 53.555578-94.029964 13.081192l0 0q-53.555578-40.474386-13.081192-94.029964l139.045699-183.984824q40.474386-53.555578 94.029964-13.081192Z" fill="" p-id="32806"></path><path d="M634.593482 468.936628m53.555578 40.474386l0 0q53.555578 40.474386 13.081192 94.029964l-139.045699 183.984824q-40.474386 53.555578-94.029964 13.081192l0 0q-53.555578-40.474386-13.081192-94.029964l139.045699-183.984824q40.474386-53.555578 94.029964-13.081192Z" fill="#F15A24" p-id="32807"></path><path d="M412.825596 763.889597c-68.854528 88.29978-190.37529 108.565303-190.37529 108.565303s-9.903568-122.823546 58.950959-211.0992 190.37529-108.565303 190.37529-108.565303 9.903568 122.811483-58.950959 211.0992z" fill="#F7931E" p-id="32808"></path><path d="M395.008823 749.993238c-50.181296 64.367162-138.722332 79.180294-138.722331 79.180294s-7.237687-89.518124 42.967734-153.873222 138.722332-79.180294 138.722332-79.180294 7.213561 89.518124-42.967735 153.873222z" fill="#FFAB57" p-id="32809"></path><path d="M708.991742 530.631012c-105.537537 145.15181-341.92039 153.077077-341.92039 153.077077s-65.271873-227.323682 40.253602-372.42724 341.92039-153.040889 341.92039-153.040889 65.271873 227.335744-40.253602 372.391052z" fill="#C7B299" p-id="32810"></path><path d="M655.215729 313.500406m-57.298355 0a57.298354 57.298354 0 1 0 114.596709 0 57.298354 57.298354 0 1 0-114.596709 0Z" fill="" p-id="32811"></path><path d="M655.215729 291.184205m-57.298355 0a57.298354 57.298354 0 1 0 114.596709 0 57.298354 57.298354 0 1 0-114.596709 0Z" fill="#0000FF" p-id="32812"></path><path d="M575.432294 418.350363m-39.759027 0a39.759026 39.759026 0 1 0 79.518053 0 39.759026 39.759026 0 1 0-79.518053 0Z" fill="" p-id="32813"></path><path d="M575.432294 402.873776m-39.759027 0a39.759026 39.759026 0 1 0 79.518053 0 39.759026 39.759026 0 1 0-79.518053 0Z" fill="#0000FF" p-id="32814"></path><path d="M538.821661 523.924089l-10.663525 67.949817-62.147605 23.944681-109.71127 146.91298-55.826691-41.689076 110.169657-147.516121-0.168879-0.132691 10.663525-67.937754 64.174157-24.740826 53.510631 43.20899z" fill="#F15A24" p-id="32815"></path></svg>