<?xml version="1.0" standalone="no"?><!DOCTYPE svg PUBLIC "-//W3C//DTD SVG 1.1//EN" "http://www.w3.org/Graphics/SVG/1.1/DTD/svg11.dtd"><svg t="1768484573584" class="icon" viewBox="0 0 1024 1024" version="1.1" xmlns="http://www.w3.org/2000/svg" p-id="12389" width="256" height="256" xmlns:xlink="http://www.w3.org/1999/xlink"><path d="M0 0h1024v1024H0z" fill="#FFFFFF" opacity=".01" p-id="12390"></path><path d="M481.745455 994.909091v-116.363636a29.090909 29.090909 0 0 1 58.181818 0v116.363636a29.090909 29.090909 0 1 1-58.181818 0z m93.090909-46.545455v-69.818181a29.090909 29.090909 0 0 1 58.181818 0v69.818181a29.090909 29.090909 0 0 1-58.181818 0z m-186.181819-23.272727v-46.545454a29.090909 29.090909 0 0 1 58.181819 0v46.545454a29.090909 29.090909 0 0 1-58.181819 0z m17.082182-87.272727a91.252364 91.252364 0 0 1-73.890909-36.840727 667.671273 667.671273 0 0 1-39.726545-61.998546l-9.611637 54.621091a46.126545 46.126545 0 0 1-56.087272 37.236364A208.896 208.896 0 0 1 183.854545 442.437818a560.267636 560.267636 0 0 1-10.58909-100.328727A339.781818 339.781818 0 0 1 510.72 0a339.781818 339.781818 0 0 1 337.454545 342.109091 560.267636 560.267636 0 0 1-10.565818 100.212364A208.896 208.896 0 0 1 795.042909 830.836364a46.126545 46.126545 0 0 1-56.087273-37.236364l-9.611636-54.551273a664.785455 664.785455 0 0 1-39.703273 61.998546A91.322182 91.322182 0 0 1 615.726545 837.818182z m-34.629818-535.272727a139.636364 139.636364 0 1 0 139.636364-139.636364 139.636364 139.636364 0 0 0-139.636364 139.636364z" fill="#5255FA" p-id="12391"></path></svg>